<svg xmlns="http://www.w3.org/2000/svg" xmlns:xlink="http://www.w3.org/1999/xlink" width="132.621" height="111.704" viewBox="0 0 132.621 111.704">
  <defs>
    <clipPath id="clip-path">
      <rect id="Rechteck_11" data-name="Rechteck 11" width="132.621" height="111.704" fill="#00887a"/>
    </clipPath>
  </defs>
  <g id="Gruppe_69" data-name="Gruppe 69" transform="translate(0 0)">
    <g id="Gruppe_68" data-name="Gruppe 68" transform="translate(0 0)" clip-path="url(#clip-path)">
      <path id="Pfad_24" data-name="Pfad 24" d="M132.5,9.593a1.581,1.581,0,0,0-1.462-.984H109.759a1.588,1.588,0,0,0-1.082.429l-2.518,2.373a1.587,1.587,0,0,0-.733-.63,1.571,1.571,0,0,0-1.72.342L91.587,23.237V18.088c0-4.291-4.06-8.055-8.689-8.055a8.926,8.926,0,0,0-5.525,2.005V8.058a7.9,7.9,0,1,0-15.8.034v.676a7.55,7.55,0,0,0-4.587-1.523,8.078,8.078,0,0,0-8.047,8.093v7.8a9.766,9.766,0,0,0-5.693-1.747,8.682,8.682,0,0,0-7.891,5.636,10.986,10.986,0,0,0-7.865-1.39,11.78,11.78,0,0,0-2.928-11.51c-3.323-3.376-7.2-4.022-10.629-4.591-4.246-.706-7.6-1.265-9.771-6.425a1.551,1.551,0,0,0-1.549-.965A1.575,1.575,0,0,0,1.191,3.285a27.174,27.174,0,0,0,6.87,27.331,11.6,11.6,0,0,0,8.248,3.414,11.781,11.781,0,0,0,3-.4,10.652,10.652,0,0,0,2.837,9.893c.889.889,5.768,5.461,12.577,11.807v20.3a28.178,28.178,0,0,0,.342,4.139L23.084,91.745a1.565,1.565,0,0,0-.167,1.99l-4.671,4.682a1.546,1.546,0,0,0-.46,1.116,1.583,1.583,0,0,0,.463,1.12L28.89,111.245A1.583,1.583,0,0,0,30,111.7a1.564,1.564,0,0,0,1.113-.463l4.629-4.629a1.552,1.552,0,0,0,2.146-.057l7.933-7.937A32.065,32.065,0,0,0,66.4,106.19a33.621,33.621,0,0,0,17.583-5.036c4.967,4.625,8.347,7.785,8.806,8.244a7.27,7.27,0,0,0,10.3,0,7.387,7.387,0,0,0,0-10.3c-.448-.441-3.665-3.885-8.381-8.951a23.842,23.842,0,0,0,3.2-11.7V53.2a8.016,8.016,0,0,0-1.751-4.918l9.737-9.733a1.581,1.581,0,0,0,.463-1.116v-.881l25.789-25.235a1.589,1.589,0,0,0,.357-1.724M3.409,8c2.841,3.46,6.6,4.082,10.01,4.652.106.019.213.038.319.053l.027-.015,0,.019a7.423,7.423,0,0,1-3.247,4.876,10.358,10.358,0,0,1-5.168,1.466c-.33.015-.63.015-.889.008A23.453,23.453,0,0,1,3.409,8M21.926,28.709a8.442,8.442,0,0,1-11.628-.33,25.19,25.19,0,0,1-4.527-6.236,13.218,13.218,0,0,0,6.463-1.914,10.689,10.689,0,0,0,4.6-6.9,11.291,11.291,0,0,1,5.484,3.015,8.555,8.555,0,0,1,.247,11.746c-.087.095-.152.2-.239.292-.125.125-.27.216-.4.33m12.8,22.3q-2.045-1.9-3.752-3.505l3.752-3.752Zm0-11.727-6.061,6.061c-2.305-2.157-3.836-3.6-4.284-4.052A7.584,7.584,0,0,1,24.14,31c.141-.129.289-.251.422-.384.08-.076.141-.159.213-.239a7.4,7.4,0,0,1,4.876-1.8A7.568,7.568,0,0,1,34.723,30.5Zm2.92,50.1a2.154,2.154,0,0,1,.463-.311,32.26,32.26,0,0,0,1.853,3.1,1.818,1.818,0,0,1-2.316-2.787M30,107.892,21.6,99.53l3.517-3.517,8.381,8.381Zm6.779-4.69L26.433,92.865l9.425-9.422a28,28,0,0,0,.942,2.772,4.706,4.706,0,0,0-1.386.938,4.989,4.989,0,0,0,6.471,7.561c.513.608,1.06,1.185,1.622,1.754Zm64.076-1.865a4.237,4.237,0,0,1,0,5.833,4.116,4.116,0,0,1-5.829,0c-.475-.471-3.627-3.422-8.377-7.853a31.114,31.114,0,0,0,6.3-6.414c4.473,4.8,7.451,7.986,7.9,8.438m-6.1-22.888a20.686,20.686,0,0,1-2.343,9.232c-.251.5-.505.991-.79,1.473-.27.463-.585.911-.889,1.363a27.791,27.791,0,0,1-6.4,6.649c-.433.319-.866.634-1.318.934s-.93.573-1.4.851A30.011,30.011,0,0,1,66.4,103.031a28.952,28.952,0,0,1-18.35-6.638c-.406-.334-.8-.687-1.189-1.044s-.763-.725-1.132-1.1A27.734,27.734,0,0,1,43.75,92q-.775-.974-1.454-2.009c-.41-.623-.805-1.257-1.162-1.914-.395-.722-.763-1.458-1.094-2.214a26.207,26.207,0,0,1-1.6-5c-.133-.634-.228-1.276-.311-1.922-.091-.68-.141-1.367-.178-2.058-.019-.418-.065-.832-.065-1.253V30.487a6.815,6.815,0,0,1,.114-1.2,5.567,5.567,0,0,1,5.252-4.736c2.628,0,5.693,1.337,5.693,5.1V52.843a1.58,1.58,0,1,0,3.16,0v-37.5a4.976,4.976,0,0,1,4.887-4.933,4.7,4.7,0,0,1,4.587,4.9V48.1a1.582,1.582,0,0,0,3.163,0V8.093a4.743,4.743,0,1,1,9.479-.034V48.1a1.578,1.578,0,1,0,3.156,0V18.126c0-2.537,2.689-4.933,5.525-4.933s5.529,2.377,5.529,4.9V45.3c-3.87.763-7.891,4.105-7.891,7.929V63.928a7.946,7.946,0,0,1-3.676,7.044c-.41.311-.847.611-1.306.911-.41.27-.843.535-1.28.813l-.08.049c-2.928,1.838-6.129,3.885-7.485,8.032a14.038,14.038,0,0,0-.437,1.751,15.507,15.507,0,0,0-.2,1.967c-.011.262-.027.52-.027.794a1.576,1.576,0,0,0,1.58,1.58,1.505,1.505,0,0,0,.756-.224,1.549,1.549,0,0,0,.82-1.356v-.038a14.085,14.085,0,0,1,.159-2.009c.68-4.147,3.448-5.894,6.593-7.868l.433-.273c.448-.281.9-.573,1.344-.873s.87-.6,1.291-.93a10.972,10.972,0,0,0,4.667-9.369V53.234c0-2.256,3.433-4.922,6.342-4.933a4.084,4.084,0,0,1,1.36.281,5.2,5.2,0,0,1,1.424.813A5.568,5.568,0,0,1,93.9,50.545a4.731,4.731,0,0,1,.854,2.654ZM103.2,36.775,93.767,46.2a7.52,7.52,0,0,0-2.18-.885V27.7L103.235,16.06Zm3.171-4.652.027-16.588,4-3.767h16.774Z" transform="translate(0.001 0.001)" fill="#00887a"/>
    </g>
  </g>
</svg>
